<svg xmlns:xlink="http://www.w3.org/1999/xlink" xmlns="http://www.w3.org/2000/svg" data-v-95699ff3="" aria-hidden="true"
    class="externalLinkIcon" width="10.11" height="6.27">
    <defs>
        <symbol viewBox="0 0 10.11 6.27" id="icon-arrow-up-right" fill="#DFDFF2">
            <path
                d="m10.07,0h.04c-1.35,2.09-2.69,4.18-4.03,6.27-.17-.91-.35-1.82-.53-2.73,0-.03-.02-.04-.04-.05-1.84,0-3.67,0-5.51,0,1.83-.64,3.66-1.27,5.49-1.9,1.53-.52,3.05-1.06,4.58-1.59Z"
                fill="#DFDFF2"></path>
        </symbol>
    </defs>
    <g>
        <path
            d="m10.07,0h.04c-1.35,2.09-2.69,4.18-4.03,6.27-.17-.91-.35-1.82-.53-2.73,0-.03-.02-.04-.04-.05-1.84,0-3.67,0-5.51,0,1.83-.64,3.66-1.27,5.49-1.9,1.53-.52,3.05-1.06,4.58-1.59Z"
            fill="#DFDFF2"></path>
    </g>
</svg>